<?xml version="1.0" encoding="UTF-8" standalone="no"?>
<!DOCTYPE svg PUBLIC "-//W3C//DTD SVG 1.1//EN"
 "http://www.w3.org/Graphics/SVG/1.1/DTD/svg11.dtd">
<!-- Generated by graphviz version 2.43.0 (0)
 -->
<!-- Title: %3 Pages: 1 -->
<svg width="1473pt" height="692pt"
 viewBox="0.00 0.00 1472.89 692.00" xmlns="http://www.w3.org/2000/svg" xmlns:xlink="http://www.w3.org/1999/xlink">
<g id="graph0" class="graph" transform="scale(1 1) rotate(0) translate(4 688)">
<title>%3</title>
<polygon fill="white" stroke="transparent" points="-4,4 -4,-688 1468.89,-688 1468.89,4 -4,4"/>
<!-- [root] aws_instance.lamp&#45;master (expand) -->
<g id="node1" class="node">
<title>[root] aws_instance.lamp&#45;master (expand)</title>
<polygon fill="none" stroke="black" points="1027.26,-468 821.26,-468 821.26,-432 1027.26,-432 1027.26,-468"/>
<text text-anchor="middle" x="924.26" y="-446.3" font-family="Times,serif" font-size="14.00">aws_instance.lamp&#45;master</text>
</g>
<!-- [root] aws_key_pair.master&#45;key (expand) -->
<g id="node3" class="node">
<title>[root] aws_key_pair.master&#45;key (expand)</title>
<polygon fill="none" stroke="black" points="1431.26,-252 1237.26,-252 1237.26,-216 1431.26,-216 1431.26,-252"/>
<text text-anchor="middle" x="1334.26" y="-230.3" font-family="Times,serif" font-size="14.00">aws_key_pair.master&#45;key</text>
</g>
<!-- [root] aws_instance.lamp&#45;master (expand)&#45;&gt;[root] aws_key_pair.master&#45;key (expand) -->
<g id="edge1" class="edge">
<title>[root] aws_instance.lamp&#45;master (expand)&#45;&gt;[root] aws_key_pair.master&#45;key (expand)</title>
<path fill="none" stroke="black" d="M1027.37,-445.95C1172.97,-440.55 1424.35,-426.85 1452.26,-396 1493.82,-350.06 1419.8,-289.77 1371.35,-257.58"/>
<polygon fill="black" stroke="black" points="1373.22,-254.62 1362.93,-252.09 1369.4,-260.48 1373.22,-254.62"/>
</g>
<!-- [root] aws_main_route_table_association.set&#45;master&#45;default&#45;rt&#45;assoc (expand) -->
<g id="node4" class="node">
<title>[root] aws_main_route_table_association.set&#45;master&#45;default&#45;rt&#45;assoc (expand)</title>
<polygon fill="none" stroke="black" points="1049.76,-396 592.76,-396 592.76,-360 1049.76,-360 1049.76,-396"/>
<text text-anchor="middle" x="821.26" y="-374.3" font-family="Times,serif" font-size="14.00">aws_main_route_table_association.set&#45;master&#45;default&#45;rt&#45;assoc</text>
</g>
<!-- [root] aws_instance.lamp&#45;master (expand)&#45;&gt;[root] aws_main_route_table_association.set&#45;master&#45;default&#45;rt&#45;assoc (expand) -->
<g id="edge2" class="edge">
<title>[root] aws_instance.lamp&#45;master (expand)&#45;&gt;[root] aws_main_route_table_association.set&#45;master&#45;default&#45;rt&#45;assoc (expand)</title>
<path fill="none" stroke="black" d="M899.06,-431.88C885.85,-422.89 869.47,-411.76 855.15,-402.03"/>
<polygon fill="black" stroke="black" points="856.79,-398.92 846.55,-396.19 852.86,-404.71 856.79,-398.92"/>
</g>
<!-- [root] aws_security_group.lamp&#45;sg (expand) -->
<g id="node6" class="node">
<title>[root] aws_security_group.lamp&#45;sg (expand)</title>
<polygon fill="none" stroke="black" points="1443.26,-396 1225.26,-396 1225.26,-360 1443.26,-360 1443.26,-396"/>
<text text-anchor="middle" x="1334.26" y="-374.3" font-family="Times,serif" font-size="14.00">aws_security_group.lamp&#45;sg</text>
</g>
<!-- [root] aws_instance.lamp&#45;master (expand)&#45;&gt;[root] aws_security_group.lamp&#45;sg (expand) -->
<g id="edge3" class="edge">
<title>[root] aws_instance.lamp&#45;master (expand)&#45;&gt;[root] aws_security_group.lamp&#45;sg (expand)</title>
<path fill="none" stroke="black" d="M1024.03,-431.97C1084.67,-421.61 1162.16,-408.38 1224.52,-397.74"/>
<polygon fill="black" stroke="black" points="1225.13,-401.18 1234.4,-396.05 1223.95,-394.28 1225.13,-401.18"/>
</g>
<!-- [root] aws_subnet.subnet_1 (expand) -->
<g id="node8" class="node">
<title>[root] aws_subnet.subnet_1 (expand)</title>
<polygon fill="none" stroke="black" points="574.76,-396 405.76,-396 405.76,-360 574.76,-360 574.76,-396"/>
<text text-anchor="middle" x="490.26" y="-374.3" font-family="Times,serif" font-size="14.00">aws_subnet.subnet_1</text>
</g>
<!-- [root] aws_instance.lamp&#45;master (expand)&#45;&gt;[root] aws_subnet.subnet_1 (expand) -->
<g id="edge4" class="edge">
<title>[root] aws_instance.lamp&#45;master (expand)&#45;&gt;[root] aws_subnet.subnet_1 (expand)</title>
<path fill="none" stroke="black" d="M821.18,-433.71C756.06,-423.87 669.87,-410.55 584.97,-396.27"/>
<polygon fill="black" stroke="black" points="585.33,-392.78 574.89,-394.57 584.17,-399.68 585.33,-392.78"/>
</g>
<!-- [root] var.instance&#45;type -->
<g id="node15" class="node">
<title>[root] var.instance&#45;type</title>
<polygon fill="none" stroke="black" points="1200.76,-396 1067.76,-396 1067.76,-360 1206.76,-360 1206.76,-390 1200.76,-396"/>
<polyline fill="none" stroke="black" points="1200.76,-396 1200.76,-390 "/>
<polyline fill="none" stroke="black" points="1206.76,-390 1200.76,-390 "/>
<text text-anchor="middle" x="1137.26" y="-374.3" font-family="Times,serif" font-size="14.00">var.instance&#45;type</text>
</g>
<!-- [root] aws_instance.lamp&#45;master (expand)&#45;&gt;[root] var.instance&#45;type -->
<g id="edge5" class="edge">
<title>[root] aws_instance.lamp&#45;master (expand)&#45;&gt;[root] var.instance&#45;type</title>
<path fill="none" stroke="black" d="M976.09,-431.97C1006.11,-422.1 1044.08,-409.62 1075.63,-399.25"/>
<polygon fill="black" stroke="black" points="1076.79,-402.56 1085.19,-396.11 1074.6,-395.91 1076.79,-402.56"/>
</g>
<!-- [root] aws_internet_gateway.igw (expand) -->
<g id="node2" class="node">
<title>[root] aws_internet_gateway.igw (expand)</title>
<polygon fill="none" stroke="black" points="787.76,-252 584.76,-252 584.76,-216 787.76,-216 787.76,-252"/>
<text text-anchor="middle" x="686.26" y="-230.3" font-family="Times,serif" font-size="14.00">aws_internet_gateway.igw</text>
</g>
<!-- [root] aws_vpc.vpc_master (expand) -->
<g id="node10" class="node">
<title>[root] aws_vpc.vpc_master (expand)</title>
<polygon fill="none" stroke="black" points="582.26,-180 420.26,-180 420.26,-144 582.26,-144 582.26,-180"/>
<text text-anchor="middle" x="501.26" y="-158.3" font-family="Times,serif" font-size="14.00">aws_vpc.vpc_master</text>
</g>
<!-- [root] aws_internet_gateway.igw (expand)&#45;&gt;[root] aws_vpc.vpc_master (expand) -->
<g id="edge6" class="edge">
<title>[root] aws_internet_gateway.igw (expand)&#45;&gt;[root] aws_vpc.vpc_master (expand)</title>
<path fill="none" stroke="black" d="M641,-215.88C615.26,-206.14 582.85,-193.87 555.72,-183.61"/>
<polygon fill="black" stroke="black" points="556.96,-180.33 546.37,-180.07 554.48,-186.88 556.96,-180.33"/>
</g>
<!-- [root] provider[&quot;registry.terraform.io/hashicorp/aws&quot;].region&#45;master -->
<g id="node13" class="node">
<title>[root] provider[&quot;registry.terraform.io/hashicorp/aws&quot;].region&#45;master</title>
<polygon fill="none" stroke="black" points="501.26,-108 79.47,-90 501.26,-72 923.05,-90 501.26,-108"/>
<text text-anchor="middle" x="501.26" y="-86.3" font-family="Times,serif" font-size="14.00">provider[&quot;registry.terraform.io/hashicorp/aws&quot;].region&#45;master</text>
</g>
<!-- [root] aws_key_pair.master&#45;key (expand)&#45;&gt;[root] provider[&quot;registry.terraform.io/hashicorp/aws&quot;].region&#45;master -->
<g id="edge7" class="edge">
<title>[root] aws_key_pair.master&#45;key (expand)&#45;&gt;[root] provider[&quot;registry.terraform.io/hashicorp/aws&quot;].region&#45;master</title>
<path fill="none" stroke="black" d="M1237.07,-216.43C1074.34,-188.69 749.08,-133.25 591.27,-106.34"/>
<polygon fill="black" stroke="black" points="591.57,-102.84 581.12,-104.61 590.39,-109.75 591.57,-102.84"/>
</g>
<!-- [root] aws_route_table.internet_route (expand) -->
<g id="node5" class="node">
<title>[root] aws_route_table.internet_route (expand)</title>
<polygon fill="none" stroke="black" points="859.76,-324 620.76,-324 620.76,-288 859.76,-288 859.76,-324"/>
<text text-anchor="middle" x="740.26" y="-302.3" font-family="Times,serif" font-size="14.00">aws_route_table.internet_route</text>
</g>
<!-- [root] aws_main_route_table_association.set&#45;master&#45;default&#45;rt&#45;assoc (expand)&#45;&gt;[root] aws_route_table.internet_route (expand) -->
<g id="edge8" class="edge">
<title>[root] aws_main_route_table_association.set&#45;master&#45;default&#45;rt&#45;assoc (expand)&#45;&gt;[root] aws_route_table.internet_route (expand)</title>
<path fill="none" stroke="black" d="M801.24,-359.7C791.13,-350.97 778.72,-340.24 767.74,-330.75"/>
<polygon fill="black" stroke="black" points="769.91,-327.99 760.05,-324.1 765.33,-333.29 769.91,-327.99"/>
</g>
<!-- [root] aws_route_table.internet_route (expand)&#45;&gt;[root] aws_internet_gateway.igw (expand) -->
<g id="edge9" class="edge">
<title>[root] aws_route_table.internet_route (expand)&#45;&gt;[root] aws_internet_gateway.igw (expand)</title>
<path fill="none" stroke="black" d="M726.91,-287.7C720.5,-279.39 712.7,-269.28 705.65,-260.14"/>
<polygon fill="black" stroke="black" points="708.33,-257.88 699.46,-252.1 702.79,-262.16 708.33,-257.88"/>
</g>
<!-- [root] aws_security_group.lamp&#45;sg (expand)&#45;&gt;[root] aws_vpc.vpc_master (expand) -->
<g id="edge10" class="edge">
<title>[root] aws_security_group.lamp&#45;sg (expand)&#45;&gt;[root] aws_vpc.vpc_master (expand)</title>
<path fill="none" stroke="black" d="M1284.34,-359.99C1189.92,-328.29 978.34,-259.45 796.26,-216 728.56,-199.84 651.07,-186.1 592.5,-176.66"/>
<polygon fill="black" stroke="black" points="592.96,-173.19 582.53,-175.07 591.85,-180.1 592.96,-173.19"/>
</g>
<!-- [root] var.external_ip -->
<g id="node14" class="node">
<title>[root] var.external_ip</title>
<polygon fill="none" stroke="black" points="1389.26,-324 1273.26,-324 1273.26,-288 1395.26,-288 1395.26,-318 1389.26,-324"/>
<polyline fill="none" stroke="black" points="1389.26,-324 1389.26,-318 "/>
<polyline fill="none" stroke="black" points="1395.26,-318 1389.26,-318 "/>
<text text-anchor="middle" x="1334.26" y="-302.3" font-family="Times,serif" font-size="14.00">var.external_ip</text>
</g>
<!-- [root] aws_security_group.lamp&#45;sg (expand)&#45;&gt;[root] var.external_ip -->
<g id="edge11" class="edge">
<title>[root] aws_security_group.lamp&#45;sg (expand)&#45;&gt;[root] var.external_ip</title>
<path fill="none" stroke="black" d="M1334.26,-359.7C1334.26,-351.98 1334.26,-342.71 1334.26,-334.11"/>
<polygon fill="black" stroke="black" points="1337.76,-334.1 1334.26,-324.1 1330.76,-334.1 1337.76,-334.1"/>
</g>
<!-- [root] aws_security_group.lb&#45;sg (expand) -->
<g id="node7" class="node">
<title>[root] aws_security_group.lb&#45;sg (expand)</title>
<polygon fill="none" stroke="black" points="263.76,-468 66.76,-468 66.76,-432 263.76,-432 263.76,-468"/>
<text text-anchor="middle" x="165.26" y="-446.3" font-family="Times,serif" font-size="14.00">aws_security_group.lb&#45;sg</text>
</g>
<!-- [root] aws_security_group.lb&#45;sg (expand)&#45;&gt;[root] aws_vpc.vpc_master (expand) -->
<g id="edge12" class="edge">
<title>[root] aws_security_group.lb&#45;sg (expand)&#45;&gt;[root] aws_vpc.vpc_master (expand)</title>
<path fill="none" stroke="black" d="M162.05,-431.87C157.09,-399.97 151.29,-330.81 184.26,-288 238.13,-218.06 336.92,-187.18 409.95,-173.59"/>
<polygon fill="black" stroke="black" points="410.84,-176.99 420.07,-171.79 409.61,-170.1 410.84,-176.99"/>
</g>
<!-- [root] aws_subnet.subnet_1 (expand)&#45;&gt;[root] aws_vpc.vpc_master (expand) -->
<g id="edge13" class="edge">
<title>[root] aws_subnet.subnet_1 (expand)&#45;&gt;[root] aws_vpc.vpc_master (expand)</title>
<path fill="none" stroke="black" d="M491.14,-359.85C493.04,-322.83 497.55,-235.18 499.85,-190.39"/>
<polygon fill="black" stroke="black" points="503.36,-190.4 500.37,-180.23 496.37,-190.04 503.36,-190.4"/>
</g>
<!-- [root] data.aws_availability_zones.azs (expand) -->
<g id="node11" class="node">
<title>[root] data.aws_availability_zones.azs (expand)</title>
<polygon fill="none" stroke="black" points="434.76,-324 193.76,-324 193.76,-288 434.76,-288 434.76,-324"/>
<text text-anchor="middle" x="314.26" y="-302.3" font-family="Times,serif" font-size="14.00">data.aws_availability_zones.azs</text>
</g>
<!-- [root] aws_subnet.subnet_1 (expand)&#45;&gt;[root] data.aws_availability_zones.azs (expand) -->
<g id="edge14" class="edge">
<title>[root] aws_subnet.subnet_1 (expand)&#45;&gt;[root] data.aws_availability_zones.azs (expand)</title>
<path fill="none" stroke="black" d="M447.21,-359.88C422.93,-350.22 392.42,-338.09 366.75,-327.88"/>
<polygon fill="black" stroke="black" points="367.76,-324.51 357.18,-324.07 365.17,-331.02 367.76,-324.51"/>
</g>
<!-- [root] aws_subnet.subnet_2 (expand) -->
<g id="node9" class="node">
<title>[root] aws_subnet.subnet_2 (expand)</title>
<polygon fill="none" stroke="black" points="462.76,-468 293.76,-468 293.76,-432 462.76,-432 462.76,-468"/>
<text text-anchor="middle" x="378.26" y="-446.3" font-family="Times,serif" font-size="14.00">aws_subnet.subnet_2</text>
</g>
<!-- [root] aws_subnet.subnet_2 (expand)&#45;&gt;[root] aws_vpc.vpc_master (expand) -->
<g id="edge15" class="edge">
<title>[root] aws_subnet.subnet_2 (expand)&#45;&gt;[root] aws_vpc.vpc_master (expand)</title>
<path fill="none" stroke="black" d="M378.23,-431.96C378.94,-413.03 382.4,-382.19 396.26,-360 410.2,-337.68 427.73,-345.24 443.26,-324 473.49,-282.67 489.3,-224.02 496.41,-190.1"/>
<polygon fill="black" stroke="black" points="499.9,-190.5 498.42,-180.01 493.04,-189.13 499.9,-190.5"/>
</g>
<!-- [root] aws_subnet.subnet_2 (expand)&#45;&gt;[root] data.aws_availability_zones.azs (expand) -->
<g id="edge16" class="edge">
<title>[root] aws_subnet.subnet_2 (expand)&#45;&gt;[root] data.aws_availability_zones.azs (expand)</title>
<path fill="none" stroke="black" d="M370.54,-431.87C359.54,-407.46 339.24,-362.43 326.27,-333.64"/>
<polygon fill="black" stroke="black" points="329.31,-331.87 322.01,-324.19 322.93,-334.74 329.31,-331.87"/>
</g>
<!-- [root] aws_vpc.vpc_master (expand)&#45;&gt;[root] provider[&quot;registry.terraform.io/hashicorp/aws&quot;].region&#45;master -->
<g id="edge17" class="edge">
<title>[root] aws_vpc.vpc_master (expand)&#45;&gt;[root] provider[&quot;registry.terraform.io/hashicorp/aws&quot;].region&#45;master</title>
<path fill="none" stroke="black" d="M501.26,-143.7C501.26,-135.98 501.26,-126.71 501.26,-118.11"/>
<polygon fill="black" stroke="black" points="504.76,-118.1 501.26,-108.1 497.76,-118.1 504.76,-118.1"/>
</g>
<!-- [root] data.aws_availability_zones.azs (expand)&#45;&gt;[root] provider[&quot;registry.terraform.io/hashicorp/aws&quot;].region&#45;master -->
<g id="edge18" class="edge">
<title>[root] data.aws_availability_zones.azs (expand)&#45;&gt;[root] provider[&quot;registry.terraform.io/hashicorp/aws&quot;].region&#45;master</title>
<path fill="none" stroke="black" d="M321.17,-287.86C334.6,-256.25 366.85,-187.97 411.26,-144 424.4,-130.99 441.36,-119.93 457,-111.34"/>
<polygon fill="black" stroke="black" points="458.82,-114.34 466.02,-106.57 455.54,-108.15 458.82,-114.34"/>
</g>
<!-- [root] output.Lamp&#45;Main&#45;Node&#45;Public&#45;IP -->
<g id="node12" class="node">
<title>[root] output.Lamp&#45;Main&#45;Node&#45;Public&#45;IP</title>
<polygon fill="none" stroke="black" points="1047.76,-540 794.76,-540 794.76,-504 1053.76,-504 1053.76,-534 1047.76,-540"/>
<polyline fill="none" stroke="black" points="1047.76,-540 1047.76,-534 "/>
<polyline fill="none" stroke="black" points="1053.76,-534 1047.76,-534 "/>
<text text-anchor="middle" x="924.26" y="-518.3" font-family="Times,serif" font-size="14.00">output.Lamp&#45;Main&#45;Node&#45;Public&#45;IP</text>
</g>
<!-- [root] output.Lamp&#45;Main&#45;Node&#45;Public&#45;IP&#45;&gt;[root] aws_instance.lamp&#45;master (expand) -->
<g id="edge22" class="edge">
<title>[root] output.Lamp&#45;Main&#45;Node&#45;Public&#45;IP&#45;&gt;[root] aws_instance.lamp&#45;master (expand)</title>
<path fill="none" stroke="black" d="M924.26,-503.7C924.26,-495.98 924.26,-486.71 924.26,-478.11"/>
<polygon fill="black" stroke="black" points="927.76,-478.1 924.26,-468.1 920.76,-478.1 927.76,-478.1"/>
</g>
<!-- [root] var.profile -->
<g id="node16" class="node">
<title>[root] var.profile</title>
<polygon fill="none" stroke="black" points="472.76,-36 389.76,-36 389.76,0 478.76,0 478.76,-30 472.76,-36"/>
<polyline fill="none" stroke="black" points="472.76,-36 472.76,-30 "/>
<polyline fill="none" stroke="black" points="478.76,-30 472.76,-30 "/>
<text text-anchor="middle" x="434.26" y="-14.3" font-family="Times,serif" font-size="14.00">var.profile</text>
</g>
<!-- [root] provider[&quot;registry.terraform.io/hashicorp/aws&quot;].region&#45;master&#45;&gt;[root] var.profile -->
<g id="edge26" class="edge">
<title>[root] provider[&quot;registry.terraform.io/hashicorp/aws&quot;].region&#45;master&#45;&gt;[root] var.profile</title>
<path fill="none" stroke="black" d="M485.38,-72.41C477.2,-63.86 467.05,-53.26 457.97,-43.77"/>
<polygon fill="black" stroke="black" points="460.4,-41.25 450.96,-36.45 455.35,-46.09 460.4,-41.25"/>
</g>
<!-- [root] var.region&#45;master -->
<g id="node17" class="node">
<title>[root] var.region&#45;master</title>
<polygon fill="none" stroke="black" points="633.76,-36 496.76,-36 496.76,0 639.76,0 639.76,-30 633.76,-36"/>
<polyline fill="none" stroke="black" points="633.76,-36 633.76,-30 "/>
<polyline fill="none" stroke="black" points="639.76,-30 633.76,-30 "/>
<text text-anchor="middle" x="568.26" y="-14.3" font-family="Times,serif" font-size="14.00">var.region&#45;master</text>
</g>
<!-- [root] provider[&quot;registry.terraform.io/hashicorp/aws&quot;].region&#45;master&#45;&gt;[root] var.region&#45;master -->
<g id="edge27" class="edge">
<title>[root] provider[&quot;registry.terraform.io/hashicorp/aws&quot;].region&#45;master&#45;&gt;[root] var.region&#45;master</title>
<path fill="none" stroke="black" d="M517.14,-72.41C525.32,-63.86 535.47,-53.26 544.56,-43.77"/>
<polygon fill="black" stroke="black" points="547.18,-46.09 551.56,-36.45 542.12,-41.25 547.18,-46.09"/>
</g>
<!-- [root] meta.count&#45;boundary (EachMode fixup) -->
<g id="node18" class="node">
<title>[root] meta.count&#45;boundary (EachMode fixup)</title>
<ellipse fill="none" stroke="black" cx="731.26" cy="-594" rx="222.86" ry="18"/>
<text text-anchor="middle" x="731.26" y="-590.3" font-family="Times,serif" font-size="14.00">[root] meta.count&#45;boundary (EachMode fixup)</text>
</g>
<!-- [root] meta.count&#45;boundary (EachMode fixup)&#45;&gt;[root] aws_security_group.lb&#45;sg (expand) -->
<g id="edge19" class="edge">
<title>[root] meta.count&#45;boundary (EachMode fixup)&#45;&gt;[root] aws_security_group.lb&#45;sg (expand)</title>
<path fill="none" stroke="black" d="M510.18,-591.64C310.58,-588.05 43.08,-576.4 9.26,-540 -19.59,-508.95 26.18,-485.78 75.47,-470.88"/>
<polygon fill="black" stroke="black" points="76.72,-474.16 85.35,-468.01 74.77,-467.44 76.72,-474.16"/>
</g>
<!-- [root] meta.count&#45;boundary (EachMode fixup)&#45;&gt;[root] aws_subnet.subnet_2 (expand) -->
<g id="edge20" class="edge">
<title>[root] meta.count&#45;boundary (EachMode fixup)&#45;&gt;[root] aws_subnet.subnet_2 (expand)</title>
<path fill="none" stroke="black" d="M741.76,-575.75C752.25,-556.03 764.53,-523.93 747.26,-504 712.46,-463.85 570.51,-453.4 473.17,-451.07"/>
<polygon fill="black" stroke="black" points="473.09,-447.57 463.01,-450.85 472.94,-454.56 473.09,-447.57"/>
</g>
<!-- [root] meta.count&#45;boundary (EachMode fixup)&#45;&gt;[root] output.Lamp&#45;Main&#45;Node&#45;Public&#45;IP -->
<g id="edge21" class="edge">
<title>[root] meta.count&#45;boundary (EachMode fixup)&#45;&gt;[root] output.Lamp&#45;Main&#45;Node&#45;Public&#45;IP</title>
<path fill="none" stroke="black" d="M777.49,-576.23C804.54,-566.42 838.91,-553.96 867.58,-543.56"/>
<polygon fill="black" stroke="black" points="868.86,-546.82 877.07,-540.12 866.47,-540.24 868.86,-546.82"/>
</g>
<!-- [root] provider[&quot;registry.terraform.io/hashicorp/aws&quot;].region&#45;master (close) -->
<g id="node19" class="node">
<title>[root] provider[&quot;registry.terraform.io/hashicorp/aws&quot;].region&#45;master (close)</title>
<ellipse fill="none" stroke="black" cx="378.26" cy="-522" rx="360.14" ry="18"/>
<text text-anchor="middle" x="378.26" y="-518.3" font-family="Times,serif" font-size="14.00">[root] provider[&quot;registry.terraform.io/hashicorp/aws&quot;].region&#45;master (close)</text>
</g>
<!-- [root] provider[&quot;registry.terraform.io/hashicorp/aws&quot;].region&#45;master (close)&#45;&gt;[root] aws_instance.lamp&#45;master (expand) -->
<g id="edge23" class="edge">
<title>[root] provider[&quot;registry.terraform.io/hashicorp/aws&quot;].region&#45;master (close)&#45;&gt;[root] aws_instance.lamp&#45;master (expand)</title>
<path fill="none" stroke="black" d="M502.5,-505.07C595.31,-493.17 721.15,-477.04 811.17,-465.5"/>
<polygon fill="black" stroke="black" points="811.67,-468.96 821.14,-464.22 810.78,-462.02 811.67,-468.96"/>
</g>
<!-- [root] provider[&quot;registry.terraform.io/hashicorp/aws&quot;].region&#45;master (close)&#45;&gt;[root] aws_security_group.lb&#45;sg (expand) -->
<g id="edge24" class="edge">
<title>[root] provider[&quot;registry.terraform.io/hashicorp/aws&quot;].region&#45;master (close)&#45;&gt;[root] aws_security_group.lb&#45;sg (expand)</title>
<path fill="none" stroke="black" d="M326.97,-504.14C296.85,-494.25 258.59,-481.67 226.84,-471.24"/>
<polygon fill="black" stroke="black" points="227.81,-467.87 217.21,-468.07 225.62,-474.52 227.81,-467.87"/>
</g>
<!-- [root] provider[&quot;registry.terraform.io/hashicorp/aws&quot;].region&#45;master (close)&#45;&gt;[root] aws_subnet.subnet_2 (expand) -->
<g id="edge25" class="edge">
<title>[root] provider[&quot;registry.terraform.io/hashicorp/aws&quot;].region&#45;master (close)&#45;&gt;[root] aws_subnet.subnet_2 (expand)</title>
<path fill="none" stroke="black" d="M378.26,-503.7C378.26,-495.98 378.26,-486.71 378.26,-478.11"/>
<polygon fill="black" stroke="black" points="381.76,-478.1 378.26,-468.1 374.76,-478.1 381.76,-478.1"/>
</g>
<!-- [root] root -->
<g id="node20" class="node">
<title>[root] root</title>
<ellipse fill="none" stroke="black" cx="571.26" cy="-666" rx="58.49" ry="18"/>
<text text-anchor="middle" x="571.26" y="-662.3" font-family="Times,serif" font-size="14.00">[root] root</text>
</g>
<!-- [root] root&#45;&gt;[root] meta.count&#45;boundary (EachMode fixup) -->
<g id="edge28" class="edge">
<title>[root] root&#45;&gt;[root] meta.count&#45;boundary (EachMode fixup)</title>
<path fill="none" stroke="black" d="M603.64,-650.83C626.57,-640.8 657.72,-627.18 683.5,-615.9"/>
<polygon fill="black" stroke="black" points="684.97,-619.07 692.73,-611.86 682.16,-612.66 684.97,-619.07"/>
</g>
<!-- [root] root&#45;&gt;[root] provider[&quot;registry.terraform.io/hashicorp/aws&quot;].region&#45;master (close) -->
<g id="edge29" class="edge">
<title>[root] root&#45;&gt;[root] provider[&quot;registry.terraform.io/hashicorp/aws&quot;].region&#45;master (close)</title>
<path fill="none" stroke="black" d="M549.5,-648.99C515.4,-623.9 449.24,-575.22 409.89,-546.27"/>
<polygon fill="black" stroke="black" points="411.57,-543.16 401.44,-540.06 407.42,-548.8 411.57,-543.16"/>
</g>
</g>
</svg>
